<mxfile host="app.diagrams.net" modified="2024-03-25T10:57:42.065Z" agent="Mozilla/5.0 (Windows NT 10.0; Win64; x64; rv:124.0) Gecko/20100101 Firefox/124.0" etag="08hxqZd8z8k_2L4qDnLK" version="24.0.7" type="device">
  <diagram name="Pagina-1" id="nWDw0S2ICuR4OczdVEyi">
    <mxGraphModel dx="1577" dy="399" grid="1" gridSize="10" guides="1" tooltips="1" connect="1" arrows="1" fold="1" page="1" pageScale="1" pageWidth="827" pageHeight="1169" math="0" shadow="0">
      <root>
        <mxCell id="0" />
        <mxCell id="1" parent="0" />
        <mxCell id="v8D_jbdJpXpKLo5C9jEz-1" style="edgeStyle=orthogonalEdgeStyle;rounded=0;orthogonalLoop=1;jettySize=auto;html=1;exitX=0.25;exitY=1;exitDx=0;exitDy=0;endArrow=oval;endFill=1;" parent="1" source="LSVWAHJbNo_uzlFZOcrg-1" edge="1">
          <mxGeometry relative="1" as="geometry">
            <mxPoint x="180" y="290" as="targetPoint" />
          </mxGeometry>
        </mxCell>
        <mxCell id="v8D_jbdJpXpKLo5C9jEz-3" style="edgeStyle=orthogonalEdgeStyle;rounded=0;orthogonalLoop=1;jettySize=auto;html=1;exitX=0.75;exitY=0;exitDx=0;exitDy=0;endArrow=oval;endFill=0;entryX=-0.014;entryY=0.578;entryDx=0;entryDy=0;entryPerimeter=0;" parent="1" source="LSVWAHJbNo_uzlFZOcrg-1" target="v8D_jbdJpXpKLo5C9jEz-4" edge="1">
          <mxGeometry relative="1" as="geometry">
            <mxPoint x="220" y="230" as="targetPoint" />
          </mxGeometry>
        </mxCell>
        <mxCell id="v8D_jbdJpXpKLo5C9jEz-8" style="edgeStyle=orthogonalEdgeStyle;rounded=0;orthogonalLoop=1;jettySize=auto;html=1;exitX=0.25;exitY=0;exitDx=0;exitDy=0;endArrow=oval;endFill=0;" parent="1" source="LSVWAHJbNo_uzlFZOcrg-1" target="v8D_jbdJpXpKLo5C9jEz-9" edge="1">
          <mxGeometry relative="1" as="geometry">
            <mxPoint x="180" y="230" as="targetPoint" />
            <Array as="points">
              <mxPoint x="180" y="230" />
              <mxPoint x="170" y="230" />
            </Array>
          </mxGeometry>
        </mxCell>
        <mxCell id="v8D_jbdJpXpKLo5C9jEz-10" style="edgeStyle=orthogonalEdgeStyle;rounded=0;orthogonalLoop=1;jettySize=auto;html=1;exitX=1;exitY=0.75;exitDx=0;exitDy=0;endArrow=oval;endFill=0;" parent="1" source="LSVWAHJbNo_uzlFZOcrg-1" target="v8D_jbdJpXpKLo5C9jEz-11" edge="1">
          <mxGeometry relative="1" as="geometry">
            <mxPoint x="250" y="270.1111111111111" as="targetPoint" />
            <Array as="points">
              <mxPoint x="250" y="280" />
              <mxPoint x="250" y="280" />
            </Array>
          </mxGeometry>
        </mxCell>
        <mxCell id="LSVWAHJbNo_uzlFZOcrg-1" value="Utente" style="whiteSpace=wrap;html=1;align=center;" parent="1" vertex="1">
          <mxGeometry x="160" y="240" width="80" height="40" as="geometry" />
        </mxCell>
        <mxCell id="LSVWAHJbNo_uzlFZOcrg-3" value="" style="edgeStyle=orthogonalEdgeStyle;rounded=0;orthogonalLoop=1;jettySize=auto;html=1;endArrow=none;endFill=0;" parent="1" source="LSVWAHJbNo_uzlFZOcrg-2" target="LSVWAHJbNo_uzlFZOcrg-1" edge="1">
          <mxGeometry relative="1" as="geometry" />
        </mxCell>
        <mxCell id="LSVWAHJbNo_uzlFZOcrg-5" value="" style="edgeStyle=orthogonalEdgeStyle;rounded=0;orthogonalLoop=1;jettySize=auto;html=1;endArrow=none;endFill=0;" parent="1" source="LSVWAHJbNo_uzlFZOcrg-2" target="LSVWAHJbNo_uzlFZOcrg-4" edge="1">
          <mxGeometry relative="1" as="geometry" />
        </mxCell>
        <mxCell id="LSVWAHJbNo_uzlFZOcrg-2" value="Compone" style="shape=rhombus;perimeter=rhombusPerimeter;whiteSpace=wrap;html=1;align=center;" parent="1" vertex="1">
          <mxGeometry x="280" y="240" width="120" height="40" as="geometry" />
        </mxCell>
        <mxCell id="v8D_jbdJpXpKLo5C9jEz-53" style="edgeStyle=orthogonalEdgeStyle;rounded=0;orthogonalLoop=1;jettySize=auto;html=1;endArrow=oval;endFill=1;" parent="1" edge="1">
          <mxGeometry relative="1" as="geometry">
            <mxPoint x="410" y="240" as="targetPoint" />
            <mxPoint x="410" y="270" as="sourcePoint" />
          </mxGeometry>
        </mxCell>
        <mxCell id="LSVWAHJbNo_uzlFZOcrg-4" value="Carrello" style="whiteSpace=wrap;html=1;align=center;" parent="1" vertex="1">
          <mxGeometry x="440" y="240" width="80" height="40" as="geometry" />
        </mxCell>
        <mxCell id="LSVWAHJbNo_uzlFZOcrg-10" style="edgeStyle=orthogonalEdgeStyle;rounded=0;orthogonalLoop=1;jettySize=auto;html=1;entryX=0.5;entryY=0;entryDx=0;entryDy=0;shape=flexArrow;fillColor=#000000;strokeColor=default;gradientColor=none;gradientDirection=north;fillStyle=auto;" parent="1" source="LSVWAHJbNo_uzlFZOcrg-7" target="LSVWAHJbNo_uzlFZOcrg-1" edge="1">
          <mxGeometry relative="1" as="geometry">
            <Array as="points">
              <mxPoint x="150" y="160" />
              <mxPoint x="200" y="160" />
            </Array>
          </mxGeometry>
        </mxCell>
        <mxCell id="LSVWAHJbNo_uzlFZOcrg-7" value="Admin" style="whiteSpace=wrap;html=1;align=center;" parent="1" vertex="1">
          <mxGeometry x="110" y="100" width="80" height="40" as="geometry" />
        </mxCell>
        <mxCell id="LSVWAHJbNo_uzlFZOcrg-11" style="edgeStyle=orthogonalEdgeStyle;rounded=0;orthogonalLoop=1;jettySize=auto;html=1;entryX=0.5;entryY=0;entryDx=0;entryDy=0;shape=flexArrow;fillColor=#000000;" parent="1" source="LSVWAHJbNo_uzlFZOcrg-8" target="LSVWAHJbNo_uzlFZOcrg-1" edge="1">
          <mxGeometry relative="1" as="geometry">
            <Array as="points">
              <mxPoint x="250" y="160" />
              <mxPoint x="200" y="160" />
            </Array>
          </mxGeometry>
        </mxCell>
        <mxCell id="LSVWAHJbNo_uzlFZOcrg-8" value="Cliente" style="whiteSpace=wrap;html=1;align=center;" parent="1" vertex="1">
          <mxGeometry x="210" y="100" width="80" height="40" as="geometry" />
        </mxCell>
        <mxCell id="LSVWAHJbNo_uzlFZOcrg-15" value="" style="edgeStyle=orthogonalEdgeStyle;rounded=0;orthogonalLoop=1;jettySize=auto;html=1;endArrow=none;endFill=0;" parent="1" source="LSVWAHJbNo_uzlFZOcrg-12" target="LSVWAHJbNo_uzlFZOcrg-13" edge="1">
          <mxGeometry relative="1" as="geometry" />
        </mxCell>
        <mxCell id="v8D_jbdJpXpKLo5C9jEz-12" style="edgeStyle=orthogonalEdgeStyle;rounded=0;orthogonalLoop=1;jettySize=auto;html=1;exitX=0.75;exitY=1;exitDx=0;exitDy=0;endArrow=oval;endFill=1;" parent="1" source="LSVWAHJbNo_uzlFZOcrg-12" edge="1">
          <mxGeometry relative="1" as="geometry">
            <mxPoint x="-59.923076923076906" y="289.99999999999994" as="targetPoint" />
          </mxGeometry>
        </mxCell>
        <mxCell id="v8D_jbdJpXpKLo5C9jEz-14" style="edgeStyle=orthogonalEdgeStyle;rounded=0;orthogonalLoop=1;jettySize=auto;html=1;endArrow=oval;endFill=0;" parent="1" source="LSVWAHJbNo_uzlFZOcrg-12" edge="1">
          <mxGeometry relative="1" as="geometry">
            <mxPoint x="-80" y="320" as="targetPoint" />
          </mxGeometry>
        </mxCell>
        <mxCell id="v8D_jbdJpXpKLo5C9jEz-16" style="edgeStyle=orthogonalEdgeStyle;rounded=0;orthogonalLoop=1;jettySize=auto;html=1;exitX=0.25;exitY=1;exitDx=0;exitDy=0;endArrow=oval;endFill=0;" parent="1" source="LSVWAHJbNo_uzlFZOcrg-12" edge="1">
          <mxGeometry relative="1" as="geometry">
            <mxPoint x="-99.9354838709678" y="290" as="targetPoint" />
          </mxGeometry>
        </mxCell>
        <mxCell id="v8D_jbdJpXpKLo5C9jEz-32" style="edgeStyle=orthogonalEdgeStyle;rounded=0;orthogonalLoop=1;jettySize=auto;html=1;exitX=0;exitY=0.25;exitDx=0;exitDy=0;endArrow=oval;endFill=0;" parent="1" source="LSVWAHJbNo_uzlFZOcrg-12" edge="1">
          <mxGeometry relative="1" as="geometry">
            <mxPoint x="-130" y="250.07692307692304" as="targetPoint" />
          </mxGeometry>
        </mxCell>
        <mxCell id="v8D_jbdJpXpKLo5C9jEz-34" style="edgeStyle=orthogonalEdgeStyle;rounded=0;orthogonalLoop=1;jettySize=auto;html=1;exitX=0;exitY=0.75;exitDx=0;exitDy=0;endArrow=oval;endFill=0;" parent="1" source="LSVWAHJbNo_uzlFZOcrg-12" edge="1">
          <mxGeometry relative="1" as="geometry">
            <mxPoint x="-130" y="270.07692307692304" as="targetPoint" />
          </mxGeometry>
        </mxCell>
        <mxCell id="LSVWAHJbNo_uzlFZOcrg-12" value="Pet" style="whiteSpace=wrap;html=1;align=center;" parent="1" vertex="1">
          <mxGeometry x="-120" y="240" width="80" height="40" as="geometry" />
        </mxCell>
        <mxCell id="LSVWAHJbNo_uzlFZOcrg-14" value="" style="edgeStyle=orthogonalEdgeStyle;rounded=0;orthogonalLoop=1;jettySize=auto;html=1;endArrow=none;endFill=0;" parent="1" source="LSVWAHJbNo_uzlFZOcrg-13" target="LSVWAHJbNo_uzlFZOcrg-1" edge="1">
          <mxGeometry relative="1" as="geometry" />
        </mxCell>
        <mxCell id="LSVWAHJbNo_uzlFZOcrg-13" value="Possiede" style="shape=rhombus;perimeter=rhombusPerimeter;whiteSpace=wrap;html=1;align=center;" parent="1" vertex="1">
          <mxGeometry y="240" width="120" height="40" as="geometry" />
        </mxCell>
        <mxCell id="LSVWAHJbNo_uzlFZOcrg-17" value="" style="edgeStyle=orthogonalEdgeStyle;rounded=0;orthogonalLoop=1;jettySize=auto;html=1;endArrow=none;endFill=0;" parent="1" source="LSVWAHJbNo_uzlFZOcrg-16" target="LSVWAHJbNo_uzlFZOcrg-1" edge="1">
          <mxGeometry relative="1" as="geometry" />
        </mxCell>
        <mxCell id="LSVWAHJbNo_uzlFZOcrg-16" value="Recensisce" style="shape=rhombus;perimeter=rhombusPerimeter;whiteSpace=wrap;html=1;align=center;" parent="1" vertex="1">
          <mxGeometry x="140" y="320" width="120" height="40" as="geometry" />
        </mxCell>
        <mxCell id="LSVWAHJbNo_uzlFZOcrg-21" value="" style="edgeStyle=orthogonalEdgeStyle;rounded=0;orthogonalLoop=1;jettySize=auto;html=1;endArrow=none;endFill=0;" parent="1" source="LSVWAHJbNo_uzlFZOcrg-20" target="LSVWAHJbNo_uzlFZOcrg-16" edge="1">
          <mxGeometry relative="1" as="geometry">
            <Array as="points">
              <mxPoint x="200" y="380" />
              <mxPoint x="200" y="380" />
            </Array>
          </mxGeometry>
        </mxCell>
        <mxCell id="LSVWAHJbNo_uzlFZOcrg-25" style="edgeStyle=orthogonalEdgeStyle;rounded=0;orthogonalLoop=1;jettySize=auto;html=1;exitX=1;exitY=0.5;exitDx=0;exitDy=0;entryX=0;entryY=0.5;entryDx=0;entryDy=0;endArrow=none;endFill=0;" parent="1" source="LSVWAHJbNo_uzlFZOcrg-20" target="LSVWAHJbNo_uzlFZOcrg-24" edge="1">
          <mxGeometry relative="1" as="geometry" />
        </mxCell>
        <mxCell id="LSVWAHJbNo_uzlFZOcrg-74" style="edgeStyle=orthogonalEdgeStyle;rounded=0;orthogonalLoop=1;jettySize=auto;html=1;exitX=0.5;exitY=1;exitDx=0;exitDy=0;entryX=0;entryY=0.5;entryDx=0;entryDy=0;endArrow=none;endFill=0;" parent="1" source="LSVWAHJbNo_uzlFZOcrg-20" target="LSVWAHJbNo_uzlFZOcrg-72" edge="1">
          <mxGeometry relative="1" as="geometry" />
        </mxCell>
        <mxCell id="v8D_jbdJpXpKLo5C9jEz-19" style="edgeStyle=orthogonalEdgeStyle;rounded=0;orthogonalLoop=1;jettySize=auto;html=1;exitX=0.25;exitY=1;exitDx=0;exitDy=0;endArrow=oval;endFill=1;" parent="1" source="LSVWAHJbNo_uzlFZOcrg-20" edge="1">
          <mxGeometry relative="1" as="geometry">
            <mxPoint x="180.0769230769231" y="450" as="targetPoint" />
          </mxGeometry>
        </mxCell>
        <mxCell id="v8D_jbdJpXpKLo5C9jEz-21" style="edgeStyle=orthogonalEdgeStyle;rounded=0;orthogonalLoop=1;jettySize=auto;html=1;exitX=0.25;exitY=0;exitDx=0;exitDy=0;endArrow=oval;endFill=0;" parent="1" source="LSVWAHJbNo_uzlFZOcrg-20" edge="1">
          <mxGeometry relative="1" as="geometry">
            <mxPoint x="180" y="390" as="targetPoint" />
          </mxGeometry>
        </mxCell>
        <mxCell id="v8D_jbdJpXpKLo5C9jEz-23" style="edgeStyle=orthogonalEdgeStyle;rounded=0;orthogonalLoop=1;jettySize=auto;html=1;exitX=0;exitY=0.25;exitDx=0;exitDy=0;endArrow=oval;endFill=0;" parent="1" source="LSVWAHJbNo_uzlFZOcrg-20" edge="1">
          <mxGeometry relative="1" as="geometry">
            <mxPoint x="150" y="390" as="targetPoint" />
          </mxGeometry>
        </mxCell>
        <mxCell id="v8D_jbdJpXpKLo5C9jEz-27" style="edgeStyle=orthogonalEdgeStyle;rounded=0;orthogonalLoop=1;jettySize=auto;html=1;exitX=0.75;exitY=0;exitDx=0;exitDy=0;endArrow=oval;endFill=0;" parent="1" source="LSVWAHJbNo_uzlFZOcrg-20" edge="1">
          <mxGeometry relative="1" as="geometry">
            <mxPoint x="220" y="390" as="targetPoint" />
          </mxGeometry>
        </mxCell>
        <mxCell id="v8D_jbdJpXpKLo5C9jEz-50" style="edgeStyle=orthogonalEdgeStyle;rounded=0;orthogonalLoop=1;jettySize=auto;html=1;exitX=0.75;exitY=1;exitDx=0;exitDy=0;endArrow=oval;endFill=0;" parent="1" source="LSVWAHJbNo_uzlFZOcrg-20" edge="1">
          <mxGeometry relative="1" as="geometry">
            <mxPoint x="220" y="450" as="targetPoint" />
          </mxGeometry>
        </mxCell>
        <mxCell id="-EXne8myIF6QadxSK3d--1" style="edgeStyle=orthogonalEdgeStyle;rounded=0;orthogonalLoop=1;jettySize=auto;html=1;exitX=1;exitY=0.75;exitDx=0;exitDy=0;endArrow=oval;endFill=0;" edge="1" parent="1" source="LSVWAHJbNo_uzlFZOcrg-20">
          <mxGeometry relative="1" as="geometry">
            <mxPoint x="260" y="440" as="targetPoint" />
          </mxGeometry>
        </mxCell>
        <mxCell id="LSVWAHJbNo_uzlFZOcrg-20" value="Prodotto" style="whiteSpace=wrap;html=1;align=center;" parent="1" vertex="1">
          <mxGeometry x="160" y="400" width="80" height="40" as="geometry" />
        </mxCell>
        <mxCell id="LSVWAHJbNo_uzlFZOcrg-26" value="" style="edgeStyle=orthogonalEdgeStyle;rounded=0;orthogonalLoop=1;jettySize=auto;html=1;endArrow=none;endFill=0;" parent="1" source="LSVWAHJbNo_uzlFZOcrg-24" target="LSVWAHJbNo_uzlFZOcrg-4" edge="1">
          <mxGeometry relative="1" as="geometry" />
        </mxCell>
        <mxCell id="LSVWAHJbNo_uzlFZOcrg-24" value="Composto" style="shape=rhombus;perimeter=rhombusPerimeter;whiteSpace=wrap;html=1;align=center;" parent="1" vertex="1">
          <mxGeometry x="280" y="400" width="120" height="40" as="geometry" />
        </mxCell>
        <mxCell id="LSVWAHJbNo_uzlFZOcrg-49" style="edgeStyle=orthogonalEdgeStyle;rounded=0;orthogonalLoop=1;jettySize=auto;html=1;exitX=1;exitY=0.5;exitDx=0;exitDy=0;entryX=0;entryY=0.5;entryDx=0;entryDy=0;shape=flexArrow;fillColor=#000000;" parent="1" source="LSVWAHJbNo_uzlFZOcrg-27" target="LSVWAHJbNo_uzlFZOcrg-20" edge="1">
          <mxGeometry relative="1" as="geometry">
            <Array as="points">
              <mxPoint x="110" y="470" />
              <mxPoint x="110" y="420" />
            </Array>
          </mxGeometry>
        </mxCell>
        <mxCell id="v8D_jbdJpXpKLo5C9jEz-47" style="edgeStyle=orthogonalEdgeStyle;rounded=0;orthogonalLoop=1;jettySize=auto;html=1;exitX=0;exitY=0.5;exitDx=0;exitDy=0;endArrow=oval;endFill=0;" parent="1" source="LSVWAHJbNo_uzlFZOcrg-27" edge="1">
          <mxGeometry relative="1" as="geometry">
            <mxPoint x="-10" y="470.1111111111111" as="targetPoint" />
          </mxGeometry>
        </mxCell>
        <mxCell id="LSVWAHJbNo_uzlFZOcrg-27" value="Cibo" style="whiteSpace=wrap;html=1;align=center;direction=east;" parent="1" vertex="1">
          <mxGeometry y="450" width="80" height="40" as="geometry" />
        </mxCell>
        <mxCell id="v8D_jbdJpXpKLo5C9jEz-41" style="edgeStyle=orthogonalEdgeStyle;rounded=0;orthogonalLoop=1;jettySize=auto;html=1;exitX=0;exitY=0.25;exitDx=0;exitDy=0;endArrow=oval;endFill=0;" parent="1" source="LSVWAHJbNo_uzlFZOcrg-28" edge="1">
          <mxGeometry relative="1" as="geometry">
            <mxPoint x="-10" y="410.0769230769231" as="targetPoint" />
          </mxGeometry>
        </mxCell>
        <mxCell id="LSVWAHJbNo_uzlFZOcrg-28" value="Vestiario" style="whiteSpace=wrap;html=1;align=center;direction=east;" parent="1" vertex="1">
          <mxGeometry y="400" width="80" height="40" as="geometry" />
        </mxCell>
        <mxCell id="LSVWAHJbNo_uzlFZOcrg-50" style="edgeStyle=orthogonalEdgeStyle;rounded=0;orthogonalLoop=1;jettySize=auto;html=1;exitX=1;exitY=0.5;exitDx=0;exitDy=0;shape=flexArrow;fillColor=#000000;" parent="1" source="LSVWAHJbNo_uzlFZOcrg-29" edge="1">
          <mxGeometry relative="1" as="geometry">
            <mxPoint x="160" y="420" as="targetPoint" />
            <Array as="points">
              <mxPoint x="110" y="370" />
              <mxPoint x="110" y="420" />
            </Array>
          </mxGeometry>
        </mxCell>
        <mxCell id="v8D_jbdJpXpKLo5C9jEz-43" style="edgeStyle=orthogonalEdgeStyle;rounded=0;orthogonalLoop=1;jettySize=auto;html=1;exitX=0;exitY=0.25;exitDx=0;exitDy=0;endArrow=oval;endFill=0;" parent="1" source="LSVWAHJbNo_uzlFZOcrg-29" edge="1">
          <mxGeometry relative="1" as="geometry">
            <mxPoint x="-10" y="360.0769230769231" as="targetPoint" />
          </mxGeometry>
        </mxCell>
        <mxCell id="v8D_jbdJpXpKLo5C9jEz-45" style="edgeStyle=orthogonalEdgeStyle;rounded=0;orthogonalLoop=1;jettySize=auto;html=1;exitX=0;exitY=0.75;exitDx=0;exitDy=0;endArrow=oval;endFill=0;" parent="1" source="LSVWAHJbNo_uzlFZOcrg-29" edge="1">
          <mxGeometry relative="1" as="geometry">
            <mxPoint x="-10" y="380.0769230769231" as="targetPoint" />
          </mxGeometry>
        </mxCell>
        <mxCell id="LSVWAHJbNo_uzlFZOcrg-29" value="Giocattoli" style="whiteSpace=wrap;html=1;align=center;direction=east;" parent="1" vertex="1">
          <mxGeometry y="350" width="80" height="40" as="geometry" />
        </mxCell>
        <mxCell id="LSVWAHJbNo_uzlFZOcrg-34" value="" style="edgeStyle=orthogonalEdgeStyle;rounded=0;orthogonalLoop=1;jettySize=auto;html=1;endArrow=none;endFill=0;entryX=1;entryY=0.5;entryDx=0;entryDy=0;exitX=0.5;exitY=0;exitDx=0;exitDy=0;" parent="1" source="LSVWAHJbNo_uzlFZOcrg-33" target="LSVWAHJbNo_uzlFZOcrg-4" edge="1">
          <mxGeometry relative="1" as="geometry" />
        </mxCell>
        <mxCell id="v8D_jbdJpXpKLo5C9jEz-54" style="edgeStyle=orthogonalEdgeStyle;rounded=0;orthogonalLoop=1;jettySize=auto;html=1;exitX=1;exitY=0;exitDx=0;exitDy=0;endArrow=oval;endFill=0;" parent="1" source="LSVWAHJbNo_uzlFZOcrg-33" edge="1">
          <mxGeometry relative="1" as="geometry">
            <mxPoint x="640" y="310" as="targetPoint" />
          </mxGeometry>
        </mxCell>
        <mxCell id="LSVWAHJbNo_uzlFZOcrg-33" value="Finalizza" style="shape=rhombus;perimeter=rhombusPerimeter;whiteSpace=wrap;html=1;align=center;" parent="1" vertex="1">
          <mxGeometry x="540" y="320" width="120" height="40" as="geometry" />
        </mxCell>
        <mxCell id="LSVWAHJbNo_uzlFZOcrg-36" value="" style="edgeStyle=orthogonalEdgeStyle;rounded=0;orthogonalLoop=1;jettySize=auto;html=1;endArrow=none;endFill=0;exitX=0.5;exitY=0;exitDx=0;exitDy=0;" parent="1" source="LSVWAHJbNo_uzlFZOcrg-35" target="LSVWAHJbNo_uzlFZOcrg-33" edge="1">
          <mxGeometry relative="1" as="geometry">
            <mxPoint x="600" y="450" as="sourcePoint" />
          </mxGeometry>
        </mxCell>
        <mxCell id="LSVWAHJbNo_uzlFZOcrg-73" style="edgeStyle=orthogonalEdgeStyle;rounded=0;orthogonalLoop=1;jettySize=auto;html=1;exitX=0;exitY=0.5;exitDx=0;exitDy=0;entryX=1;entryY=0.5;entryDx=0;entryDy=0;endArrow=none;endFill=0;" parent="1" source="LSVWAHJbNo_uzlFZOcrg-35" target="LSVWAHJbNo_uzlFZOcrg-72" edge="1">
          <mxGeometry relative="1" as="geometry" />
        </mxCell>
        <mxCell id="v8D_jbdJpXpKLo5C9jEz-56" style="edgeStyle=orthogonalEdgeStyle;rounded=0;orthogonalLoop=1;jettySize=auto;html=1;exitX=0.75;exitY=0;exitDx=0;exitDy=0;endArrow=oval;endFill=1;" parent="1" source="LSVWAHJbNo_uzlFZOcrg-35" edge="1">
          <mxGeometry relative="1" as="geometry">
            <mxPoint x="619.9859154929579" y="450" as="targetPoint" />
          </mxGeometry>
        </mxCell>
        <mxCell id="LSVWAHJbNo_uzlFZOcrg-35" value="Ordine" style="whiteSpace=wrap;html=1;align=center;" parent="1" vertex="1">
          <mxGeometry x="560" y="460" width="80" height="40" as="geometry" />
        </mxCell>
        <mxCell id="LSVWAHJbNo_uzlFZOcrg-48" value="" style="edgeStyle=orthogonalEdgeStyle;rounded=0;orthogonalLoop=1;jettySize=auto;html=1;shape=flexArrow;fillColor=#000000;entryX=0;entryY=0.5;entryDx=0;entryDy=0;exitX=1;exitY=0.5;exitDx=0;exitDy=0;" parent="1" source="LSVWAHJbNo_uzlFZOcrg-28" target="LSVWAHJbNo_uzlFZOcrg-20" edge="1">
          <mxGeometry relative="1" as="geometry">
            <mxPoint x="20" y="420" as="sourcePoint" />
            <mxPoint x="20" y="360" as="targetPoint" />
          </mxGeometry>
        </mxCell>
        <mxCell id="LSVWAHJbNo_uzlFZOcrg-55" value="(0,N)" style="text;html=1;align=right;verticalAlign=bottom;resizable=0;points=[];autosize=1;strokeColor=none;fillColor=none;" parent="1" vertex="1">
          <mxGeometry x="110" y="230" width="50" height="30" as="geometry" />
        </mxCell>
        <mxCell id="LSVWAHJbNo_uzlFZOcrg-56" value="(1,1)" style="text;html=1;align=left;verticalAlign=bottom;resizable=0;points=[];autosize=1;strokeColor=none;fillColor=none;" parent="1" vertex="1">
          <mxGeometry x="-40" y="230" width="50" height="30" as="geometry" />
        </mxCell>
        <mxCell id="LSVWAHJbNo_uzlFZOcrg-61" value="(1,1)" style="text;html=1;align=left;verticalAlign=bottom;resizable=0;points=[];autosize=1;strokeColor=none;fillColor=none;" parent="1" vertex="1">
          <mxGeometry x="240" y="230" width="50" height="30" as="geometry" />
        </mxCell>
        <mxCell id="LSVWAHJbNo_uzlFZOcrg-62" value="(1,1)" style="text;html=1;align=right;verticalAlign=bottom;resizable=0;points=[];autosize=1;strokeColor=none;fillColor=none;" parent="1" vertex="1">
          <mxGeometry x="390" y="230" width="50" height="30" as="geometry" />
        </mxCell>
        <mxCell id="LSVWAHJbNo_uzlFZOcrg-63" value="(0,N)" style="text;html=1;align=right;verticalAlign=top;resizable=0;points=[];autosize=1;strokeColor=none;fillColor=none;" parent="1" vertex="1">
          <mxGeometry x="430" y="280" width="50" height="30" as="geometry" />
        </mxCell>
        <mxCell id="LSVWAHJbNo_uzlFZOcrg-64" value="(0,N)" style="text;html=1;align=left;verticalAlign=bottom;resizable=0;points=[];autosize=1;strokeColor=none;fillColor=none;fontSize=7;" parent="1" vertex="1">
          <mxGeometry x="240" y="400" width="40" height="20" as="geometry" />
        </mxCell>
        <mxCell id="LSVWAHJbNo_uzlFZOcrg-65" value="(0,N)" style="text;html=1;align=left;verticalAlign=top;resizable=0;points=[];autosize=1;strokeColor=none;fillColor=none;" parent="1" vertex="1">
          <mxGeometry x="200" y="280" width="50" height="30" as="geometry" />
        </mxCell>
        <mxCell id="LSVWAHJbNo_uzlFZOcrg-66" value="(0,N)" style="text;html=1;align=left;verticalAlign=bottom;resizable=0;points=[];autosize=1;strokeColor=none;fillColor=none;fontSize=7;" parent="1" vertex="1">
          <mxGeometry x="200" y="355" width="40" height="20" as="geometry" />
        </mxCell>
        <mxCell id="LSVWAHJbNo_uzlFZOcrg-67" value="(0,1)" style="text;html=1;align=left;verticalAlign=bottom;resizable=0;points=[];autosize=1;strokeColor=none;fillColor=none;" parent="1" vertex="1">
          <mxGeometry x="560" y="280" width="50" height="30" as="geometry" />
        </mxCell>
        <mxCell id="LSVWAHJbNo_uzlFZOcrg-68" value="(1,1)" style="text;html=1;align=right;verticalAlign=bottom;resizable=0;points=[];autosize=1;strokeColor=none;fillColor=none;" parent="1" vertex="1">
          <mxGeometry x="550" y="355" width="50" height="30" as="geometry" />
        </mxCell>
        <mxCell id="LSVWAHJbNo_uzlFZOcrg-72" value="Contiene" style="shape=rhombus;perimeter=rhombusPerimeter;whiteSpace=wrap;html=1;align=center;" parent="1" vertex="1">
          <mxGeometry x="280" y="460" width="120" height="40" as="geometry" />
        </mxCell>
        <mxCell id="LSVWAHJbNo_uzlFZOcrg-75" value="(1,N)" style="text;html=1;align=right;verticalAlign=bottom;resizable=0;points=[];autosize=1;strokeColor=none;fillColor=none;" parent="1" vertex="1">
          <mxGeometry x="400" y="448" width="50" height="30" as="geometry" />
        </mxCell>
        <mxCell id="LSVWAHJbNo_uzlFZOcrg-76" value="(0,N)" style="text;html=1;align=left;verticalAlign=top;resizable=0;points=[];autosize=1;strokeColor=none;fillColor=none;fontSize=7;" parent="1" vertex="1">
          <mxGeometry x="250" y="478" width="40" height="20" as="geometry" />
        </mxCell>
        <mxCell id="v8D_jbdJpXpKLo5C9jEz-2" value="&lt;font style=&quot;font-size: 10px;&quot;&gt;ID&lt;/font&gt;" style="text;html=1;align=center;verticalAlign=middle;resizable=0;points=[];autosize=1;strokeColor=none;fillColor=none;" parent="1" vertex="1">
          <mxGeometry x="165" y="288" width="30" height="30" as="geometry" />
        </mxCell>
        <mxCell id="v8D_jbdJpXpKLo5C9jEz-4" value="&lt;div&gt;&lt;font style=&quot;font-size: 7px;&quot;&gt;Username&lt;/font&gt;&lt;/div&gt;" style="text;html=1;align=center;verticalAlign=middle;resizable=0;points=[];autosize=1;strokeColor=none;fillColor=none;" parent="1" vertex="1">
          <mxGeometry x="230" y="210" width="60" height="30" as="geometry" />
        </mxCell>
        <mxCell id="v8D_jbdJpXpKLo5C9jEz-9" value="&lt;font style=&quot;font-size: 7px;&quot;&gt;email&lt;/font&gt;" style="text;html=1;align=center;verticalAlign=bottom;resizable=0;points=[];autosize=1;strokeColor=none;fillColor=none;" parent="1" vertex="1">
          <mxGeometry x="150" y="190" width="40" height="30" as="geometry" />
        </mxCell>
        <mxCell id="v8D_jbdJpXpKLo5C9jEz-11" value="&lt;font style=&quot;font-size: 8px;&quot;&gt;Password&lt;/font&gt;" style="text;html=1;align=left;verticalAlign=top;resizable=0;points=[];autosize=1;strokeColor=none;fillColor=none;" parent="1" vertex="1">
          <mxGeometry x="250" y="280" width="60" height="30" as="geometry" />
        </mxCell>
        <mxCell id="v8D_jbdJpXpKLo5C9jEz-13" value="&lt;font style=&quot;font-size: 9px;&quot;&gt;Nome&lt;/font&gt;" style="text;html=1;align=center;verticalAlign=middle;resizable=0;points=[];autosize=1;strokeColor=none;fillColor=none;" parent="1" vertex="1">
          <mxGeometry x="-85" y="288" width="50" height="30" as="geometry" />
        </mxCell>
        <mxCell id="v8D_jbdJpXpKLo5C9jEz-15" value="&lt;font style=&quot;font-size: 9px;&quot;&gt;Tipo&lt;/font&gt;" style="text;html=1;align=center;verticalAlign=middle;resizable=0;points=[];autosize=1;strokeColor=none;fillColor=none;" parent="1" vertex="1">
          <mxGeometry x="-100" y="318" width="40" height="30" as="geometry" />
        </mxCell>
        <mxCell id="v8D_jbdJpXpKLo5C9jEz-17" value="&lt;font style=&quot;font-size: 8px;&quot;&gt;Taglia&lt;/font&gt;" style="text;html=1;align=center;verticalAlign=middle;resizable=0;points=[];autosize=1;strokeColor=none;fillColor=none;" parent="1" vertex="1">
          <mxGeometry x="-120" y="288" width="40" height="30" as="geometry" />
        </mxCell>
        <mxCell id="v8D_jbdJpXpKLo5C9jEz-18" value="&lt;font style=&quot;font-size: 5px;&quot;&gt;(0,1)&lt;br&gt;&lt;/font&gt;" style="text;html=1;align=left;verticalAlign=middle;resizable=0;points=[];autosize=1;strokeColor=none;fillColor=none;" parent="1" vertex="1">
          <mxGeometry x="-115" y="270" width="30" height="30" as="geometry" />
        </mxCell>
        <mxCell id="v8D_jbdJpXpKLo5C9jEz-20" value="&lt;font style=&quot;font-size: 8px;&quot;&gt;ID&lt;/font&gt;" style="text;html=1;align=center;verticalAlign=top;resizable=0;points=[];autosize=1;strokeColor=none;fillColor=none;" parent="1" vertex="1">
          <mxGeometry x="165" y="448" width="30" height="30" as="geometry" />
        </mxCell>
        <mxCell id="v8D_jbdJpXpKLo5C9jEz-22" value="&lt;font style=&quot;font-size: 7px;&quot;&gt;Nome&lt;/font&gt;" style="text;html=1;align=center;verticalAlign=middle;resizable=0;points=[];autosize=1;strokeColor=none;fillColor=none;" parent="1" vertex="1">
          <mxGeometry x="165" y="365" width="40" height="30" as="geometry" />
        </mxCell>
        <mxCell id="v8D_jbdJpXpKLo5C9jEz-24" value="&lt;font style=&quot;font-size: 7px;&quot;&gt;Disponibilità&lt;/font&gt;" style="text;html=1;align=center;verticalAlign=middle;resizable=0;points=[];autosize=1;strokeColor=none;fillColor=none;" parent="1" vertex="1">
          <mxGeometry x="120" y="365" width="60" height="30" as="geometry" />
        </mxCell>
        <mxCell id="v8D_jbdJpXpKLo5C9jEz-28" value="&lt;font style=&quot;font-size: 7px;&quot;&gt;Acquistati&lt;/font&gt;" style="text;html=1;align=center;verticalAlign=middle;resizable=0;points=[];autosize=1;strokeColor=none;fillColor=none;" parent="1" vertex="1">
          <mxGeometry x="195" y="365" width="50" height="30" as="geometry" />
        </mxCell>
        <mxCell id="v8D_jbdJpXpKLo5C9jEz-33" value="&lt;blockquote&gt;&lt;div align=&quot;justify&quot;&gt;&lt;font style=&quot;font-size: 7px;&quot;&gt;Data di&lt;/font&gt;&lt;br&gt;&lt;font style=&quot;font-size: 7px;&quot;&gt;nascita&lt;/font&gt;&lt;br&gt;&lt;/div&gt;&lt;/blockquote&gt;" style="text;html=1;align=center;verticalAlign=middle;resizable=0;points=[];autosize=1;strokeColor=none;fillColor=none;" parent="1" vertex="1">
          <mxGeometry x="-210" y="210" width="130" height="70" as="geometry" />
        </mxCell>
        <mxCell id="v8D_jbdJpXpKLo5C9jEz-39" value="&lt;font style=&quot;font-size: 7px;&quot;&gt;Sterilizzato&lt;/font&gt;" style="text;html=1;align=center;verticalAlign=middle;resizable=0;points=[];autosize=1;strokeColor=none;fillColor=none;" parent="1" vertex="1">
          <mxGeometry x="-180" y="258" width="60" height="30" as="geometry" />
        </mxCell>
        <mxCell id="v8D_jbdJpXpKLo5C9jEz-40" value="&lt;font style=&quot;font-size: 5px;&quot;&gt;(0,1)&lt;/font&gt;" style="text;html=1;align=center;verticalAlign=top;resizable=0;points=[];autosize=1;strokeColor=none;fillColor=none;horizontal=1;" parent="1" vertex="1">
          <mxGeometry x="-145" y="270" width="30" height="30" as="geometry" />
        </mxCell>
        <mxCell id="v8D_jbdJpXpKLo5C9jEz-42" value="&lt;font style=&quot;font-size: 7px;&quot;&gt;Taglia&lt;/font&gt;" style="text;html=1;align=center;verticalAlign=middle;resizable=0;points=[];autosize=1;strokeColor=none;fillColor=none;" parent="1" vertex="1">
          <mxGeometry x="-50" y="395" width="40" height="30" as="geometry" />
        </mxCell>
        <mxCell id="v8D_jbdJpXpKLo5C9jEz-44" value="&lt;font style=&quot;font-size: 7px;&quot;&gt;Min età&lt;br&gt;&lt;/font&gt;" style="text;html=1;align=center;verticalAlign=middle;resizable=0;points=[];autosize=1;strokeColor=none;fillColor=none;" parent="1" vertex="1">
          <mxGeometry x="-55" y="345" width="50" height="30" as="geometry" />
        </mxCell>
        <mxCell id="v8D_jbdJpXpKLo5C9jEz-46" value="&lt;font style=&quot;font-size: 7px;&quot;&gt;Max età&lt;br&gt;&lt;/font&gt;" style="text;html=1;align=center;verticalAlign=middle;resizable=0;points=[];autosize=1;strokeColor=none;fillColor=none;" parent="1" vertex="1">
          <mxGeometry x="-55" y="365" width="50" height="30" as="geometry" />
        </mxCell>
        <mxCell id="v8D_jbdJpXpKLo5C9jEz-48" value="&lt;font style=&quot;font-size: 8px;&quot;&gt;Per sterilizzati&lt;br&gt;&lt;/font&gt;" style="text;html=1;align=center;verticalAlign=middle;resizable=0;points=[];autosize=1;strokeColor=none;fillColor=none;" parent="1" vertex="1">
          <mxGeometry x="-80" y="455" width="70" height="30" as="geometry" />
        </mxCell>
        <mxCell id="v8D_jbdJpXpKLo5C9jEz-49" value="&lt;font style=&quot;font-size: 7px;&quot;&gt;(0,1)&lt;/font&gt;" style="text;html=1;align=center;verticalAlign=middle;resizable=0;points=[];autosize=1;strokeColor=none;fillColor=none;" parent="1" vertex="1">
          <mxGeometry x="-30" y="465" width="40" height="30" as="geometry" />
        </mxCell>
        <mxCell id="v8D_jbdJpXpKLo5C9jEz-51" value="&lt;font style=&quot;font-size: 8px;&quot;&gt;Prezzo&lt;/font&gt;" style="text;html=1;align=center;verticalAlign=middle;resizable=0;points=[];autosize=1;strokeColor=none;fillColor=none;" parent="1" vertex="1">
          <mxGeometry x="195" y="440" width="50" height="30" as="geometry" />
        </mxCell>
        <mxCell id="v8D_jbdJpXpKLo5C9jEz-55" value="Data" style="text;html=1;align=center;verticalAlign=middle;resizable=0;points=[];autosize=1;strokeColor=none;fillColor=none;" parent="1" vertex="1">
          <mxGeometry x="620" y="280" width="50" height="30" as="geometry" />
        </mxCell>
        <mxCell id="v8D_jbdJpXpKLo5C9jEz-57" value="&lt;font style=&quot;font-size: 9px;&quot;&gt;ID&lt;/font&gt;" style="text;html=1;align=center;verticalAlign=middle;resizable=0;points=[];autosize=1;strokeColor=none;fillColor=none;" parent="1" vertex="1">
          <mxGeometry x="610" y="425" width="30" height="30" as="geometry" />
        </mxCell>
        <mxCell id="-EXne8myIF6QadxSK3d--2" value="&lt;font style=&quot;font-size: 8px;&quot;&gt;IVA&lt;/font&gt;" style="text;html=1;align=center;verticalAlign=middle;resizable=0;points=[];autosize=1;strokeColor=none;fillColor=none;" vertex="1" parent="1">
          <mxGeometry x="240" y="430" width="40" height="30" as="geometry" />
        </mxCell>
        <mxCell id="-EXne8myIF6QadxSK3d--4" style="edgeStyle=orthogonalEdgeStyle;rounded=0;orthogonalLoop=1;jettySize=auto;html=1;exitX=0;exitY=1;exitDx=0;exitDy=0;endArrow=oval;endFill=0;" edge="1" parent="1" source="LSVWAHJbNo_uzlFZOcrg-72">
          <mxGeometry relative="1" as="geometry">
            <mxPoint x="295" y="500" as="targetPoint" />
            <Array as="points">
              <mxPoint x="295" y="490" />
            </Array>
          </mxGeometry>
        </mxCell>
        <mxCell id="-EXne8myIF6QadxSK3d--7" style="edgeStyle=orthogonalEdgeStyle;rounded=0;orthogonalLoop=1;jettySize=auto;html=1;exitX=1;exitY=1;exitDx=0;exitDy=0;entryX=0.75;entryY=0.5;entryDx=0;entryDy=0;entryPerimeter=0;endArrow=oval;endFill=0;" edge="1" parent="1" source="LSVWAHJbNo_uzlFZOcrg-72">
          <mxGeometry relative="1" as="geometry">
            <mxPoint x="380.0000000000002" y="500" as="targetPoint" />
          </mxGeometry>
        </mxCell>
        <mxCell id="-EXne8myIF6QadxSK3d--8" value="&lt;font style=&quot;font-size: 8px;&quot;&gt;IVA&lt;/font&gt;" style="text;html=1;align=center;verticalAlign=middle;resizable=0;points=[];autosize=1;strokeColor=none;fillColor=none;" vertex="1" parent="1">
          <mxGeometry x="360" y="490" width="40" height="30" as="geometry" />
        </mxCell>
        <mxCell id="-EXne8myIF6QadxSK3d--9" value="&lt;font style=&quot;font-size: 8px;&quot;&gt;Prezzo&lt;/font&gt;" style="text;html=1;align=left;verticalAlign=middle;resizable=0;points=[];autosize=1;strokeColor=none;fillColor=none;" vertex="1" parent="1">
          <mxGeometry x="280" y="490" width="50" height="30" as="geometry" />
        </mxCell>
      </root>
    </mxGraphModel>
  </diagram>
</mxfile>
